<?xml version="1.0" encoding="utf-8"?>
<!-- Generator: Adobe Illustrator 25.4.1, SVG Export Plug-In . SVG Version: 6.00 Build 0)  -->
<svg version="1.1" id="Group_1282" xmlns="http://www.w3.org/2000/svg" xmlns:xlink="http://www.w3.org/1999/xlink" x="0px" y="0px"
	 viewBox="0 0 240 240" style="enable-background:new 0 0 240 240;" xml:space="preserve">
<style type="text/css">
	.st0{fill:#3D3C3C;}
</style>
<path class="st0" d="M222,0.3L222,0.3l-203.7,0C8.7,0.2,0.8,8,0.7,17.6v204.5c0.1,9.6,8,17.3,17.6,17.2H222
	c9.6,0.1,17.6-7.6,17.7-17.2V17.6C239.5,7.9,231.6,0.2,222,0.3z M71.6,204H36.1v-114h35.4V204z M53.9,74.3
	c-11.3,0-20.6-9.2-20.6-20.5c0-11.3,9.2-20.6,20.5-20.6c11.3,0,20.6,9.2,20.6,20.5C74.4,65.1,65.2,74.3,53.9,74.3z M204.3,204h-35.4
	v-55.5c0-13.2-0.2-30.2-18.4-30.2c-18.4,0-21.3,14.4-21.3,29.3V204H93.8v-114h34v15.6h0.5c6.9-11.9,19.8-18.9,33.5-18.4
	c35.9,0,42.5,23.6,42.5,54.3L204.3,204z"/>
</svg>
