<?xml version="1.0" encoding="utf-8"?>
<!-- Generator: Adobe Illustrator 25.4.1, SVG Export Plug-In . SVG Version: 6.00 Build 0)  -->
<svg version="1.1" id="Layer_1" xmlns="http://www.w3.org/2000/svg" xmlns:xlink="http://www.w3.org/1999/xlink" x="0px" y="0px"
	 viewBox="0 0 240 240" style="enable-background:new 0 0 240 240;" xml:space="preserve">
<style type="text/css">
	.st0{fill:#3D3C3C;}
</style>
<path class="st0" d="M209.1,1H29.9C13.4,1,0,14.4,0,30.9v179.2C0,226.6,13.4,240,29.9,240h179.2c16.5,0,29.9-13.4,29.9-29.9V30.9
	C239,14.4,225.6,1,209.1,1z M178.9,90.1c0.1,1.3,0.1,2.6,0.1,3.9c0,40.5-30.8,87.2-87.2,87.2c-17.3,0-33.4-5.1-46.9-13.7
	c2.4,0.3,4.8,0.4,7.3,0.4c14.3,0,27.5-4.9,38.1-13.1c-13.4-0.2-24.7-9.1-28.6-21.3c1.9,0.4,3.8,0.5,5.7,0.5c2.8,0,5.5-0.4,8.1-1.1
	c-14-2.8-24.6-15.2-24.6-30.1c0-0.2,0-0.3,0-0.4c4.1,2.3,8.8,3.6,13.9,3.8c-8.2-5.5-13.6-14.9-13.6-25.5c0-5.6,1.5-10.9,4.1-15.4
	c15.1,18.5,37.7,30.8,63.2,32c-0.5-2.3-0.8-4.6-0.8-7c0-16.9,13.7-30.7,30.7-30.7c8.8,0,16.7,3.7,22.3,9.7c7-1.4,13.6-3.9,19.5-7.4
	c-2.3,7.2-7.2,13.2-13.5,17c6.2-0.8,12.1-2.4,17.6-4.8C190.1,80.3,184.9,85.8,178.9,90.1z"/>
</svg>
