<?xml version="1.0" standalone="no"?>
<!DOCTYPE svg PUBLIC "-//W3C//DTD SVG 1.1//EN" "http://www.w3.org/Graphics/SVG/1.1/DTD/svg11.dtd" >
<svg xmlns="http://www.w3.org/2000/svg">
<metadata>Generated by IcoMoon</metadata>
<defs>
<font id="kyndryl-Icons" horiz-adv-x="1024">
<font-face units-per-em="1024" ascent="960" descent="-64" />
<missing-glyph horiz-adv-x="1024" />
<glyph unicode="&#x20;" horiz-adv-x="512" d="" />
<glyph unicode="&#xe900;" glyph-name="linkedin" horiz-adv-x="1018" d="M547.146 498.175v1.566l-1.018-1.566zM942.359 960h-867.214c-0.258 0.003-0.562 0.005-0.867 0.005-40.697 0-73.75-32.727-74.277-73.3l-0.001-0.050v-877.312c0.527-40.622 33.58-73.349 74.278-73.349 0.305 0 0.609 0.002 0.913 0.005h867.168c0.281-0.004 0.613-0.006 0.945-0.006 40.697 0 73.751 32.728 74.277 73.301l0.001 0.050v877.625c-0.701 40.486-33.686 73.037-74.273 73.037-0.334 0-0.667-0.002-1-0.007l0.051 0.001zM308.327 102.727h-153.577v462.452h153.655zM231.617 628.66h-1.018c-1.34-0.080-2.906-0.126-4.483-0.126-44.225 0-80.076 35.851-80.076 80.076s35.851 80.076 80.076 80.076c2.294 0 4.566-0.096 6.812-0.286l-0.293 0.020c1.824 0.148 3.949 0.232 6.093 0.232 44.268 0 80.154-35.886 80.154-80.154s-35.886-80.154-80.154-80.154c-2.503 0-4.98 0.115-7.425 0.339l0.314-0.023zM862.674 103.118h-153.733v247.037c0 62.151-22.23 104.576-77.806 104.576-36.269-0.209-67.084-23.331-78.717-55.615l-0.185-0.587c-3.253-9.692-5.131-20.853-5.131-32.452 0-1.773 0.044-3.536 0.131-5.288l-0.010 0.246v-258.309h-153.733s2.035 419.087 0 462.373h153.655v-65.438c26.855 46.062 76.023 76.525 132.306 76.525 2.195 0 4.379-0.046 6.552-0.138l-0.311 0.010c101.132 0 176.903-66.143 176.903-208.135v-265.197z" />
<glyph unicode="&#xe901;" glyph-name="download" horiz-adv-x="848" d="M848.239 470.925l-84.060 122.269-267.463-168.119v534.925h-152.836v-534.925l-259.821 168.119-84.060-122.269 420.299-275.104zM38.209 88.836h764.179v-152.836h-764.179v152.836z" />
<glyph unicode="&#xe902;" glyph-name="twitter" d="M898.914 960c69.065-0.045 125.041-56.021 125.086-125.081v-773.754c0-69.099-55.993-125.12-125.081-125.164h-773.833c-69.065 0.045-125.041 56.021-125.086 125.081v773.833c0.045 69.065 56.021 125.041 125.081 125.086h773.755zM391.010 110.946c0.845-0.006 1.846-0.010 2.846-0.010 230.566 0 417.477 186.911 417.477 417.477 0 1.056-0.004 2.111-0.012 3.164l0.001-0.162c0 6.459 0 12.839 0 18.983 29.070 21.222 53.581 46.61 73.206 75.578l0.68 1.064c-24.705-11.308-53.365-19.615-83.417-23.474l-1.496-0.157c30.606 18.491 53.598 46.949 64.689 80.797l0.296 1.044c-27.011-16.237-58.432-28.664-91.885-35.51l-1.929-0.33c-27.041 28.777-65.345 46.701-107.835 46.701-81.541 0-147.665-66.010-147.849-147.508v-0.018c-0.002-0.283-0.003-0.617-0.003-0.952 0-11.634 1.466-22.925 4.224-33.699l-0.204 0.938c-123.157 6.305-231.491 64.84-304.083 153.713l-0.596 0.753c-12.485-21.214-19.86-46.732-19.86-73.973 0-51.074 25.925-96.093 65.334-122.616l0.528-0.335c-24.63 0.691-47.547 7.412-67.517 18.729l0.721-0.376v-1.812c0-0.033 0-0.072 0-0.111 0-71.299 50.442-130.817 117.587-144.814l0.961-0.167c-11.631-3.301-24.988-5.199-38.788-5.199-0.043 0-0.087 0-0.13 0h0.007c-0.041 0-0.090 0-0.138 0-9.82 0-19.405 1.004-28.658 2.914l0.912-0.157c19.428-59.099 73.605-101.231 137.788-102.398l0.137-0.002c-49.902-39.29-113.661-63.016-182.963-63.016-0.228 0-0.456 0-0.684 0.001h0.035c-1.257-0.021-2.74-0.033-4.226-0.033-10.834 0-21.519 0.642-32.018 1.889l1.27-0.123c63.412-41.871 141.215-66.797 224.84-66.797 0.266 0 0.531 0 0.797 0.001h-0.041z" />
<glyph unicode="&#xe903;" glyph-name="chevron-down" horiz-adv-x="1638" d="M1578.405 785.203l-789.208-789.208-789.208 789.208 144.815 144.815 644.392-644.312 644.392 644.312z" />
<glyph unicode="&#xe904;" glyph-name="pdf" d="M217.569 452.557v-294.605h58.982v87.398h99.635c0 0 0 0 0 0 27.11 0 49.094 21.948 49.152 49.044v109.164c-0.087 27.080-22.060 48.998-49.152 48.998 0 0 0 0 0 0v0zM366.356 304.077h-89.805v89.549h89.805zM803.348 393.626v-59.136h92.826v-58.829h-92.826v-117.76h-58.982v294.605h177.357v-58.829zM642.119 452.454h-158.72v-294.758h158.72c0 0 0 0 0 0 27.092 0 49.064 21.919 49.152 48.99v196.718c0 27.146-22.006 49.152-49.152 49.152v0zM632.289 216.525h-89.805v177.101h89.805zM161.249 798.72h233.523v-186.010c0.087-27.080 22.060-48.998 49.152-48.998 0 0 0 0 0 0h182.989v-56.627h58.982v131.123l-220.723 219.392h-313.754c0 0 0 0 0 0-27.11 0-49.094-21.948-49.152-49.044v-721.158c0.087-27.080 22.060-48.998 49.152-48.998 0 0 0 0 0 0h479.027v58.829h-469.197zM618.106 622.49h-164.352v163.686z" />
<glyph unicode="&#xe905;" glyph-name="arrow-right" d="M614.389 857.6l-56.32-56.32 307.2-312.32h-865.28v-81.92h865.28l-307.2-312.32 56.32-56.32 409.6 409.6z" />
<glyph unicode="&#xe906;" glyph-name="arrow-left" d="M409.611 857.6l56.32-56.32-307.2-312.32h865.28v-81.92h-865.28l307.2-312.32-56.32-56.32-409.6 409.6z" />
<glyph unicode="&#xe907;" glyph-name="pop-out" d="M755.2 128h-563.2v563.2h275.2v108.8h-300.8c-51.2 0-89.6-38.4-89.6-89.6v-614.4c0-51.2 38.4-89.6 89.6-89.6h614.4c51.2 0 89.6 38.4 89.6 89.6v307.2h-115.2v-275.2zM524.8 883.2v-134.4h198.4l-326.4-326.4 89.6-89.6 326.4 326.4v-198.4h134.4v422.4z" />
<glyph unicode="&#xe908;" glyph-name="chevron-up" horiz-adv-x="1727" d="M1.979 96.134l861.899 861.899 861.899-861.899-158.154-158.154-703.745 703.747-703.745-703.747z" />
<glyph unicode="&#xe909;" glyph-name="close" d="M28.414 931.562c-15.588-15.637-28.363-28.487-28.4-28.575-0.025-0.075 99.663-99.85 221.538-221.725l221.574-221.574-221.563-221.563c-121.862-121.862-221.563-221.612-221.563-221.687 0-0.063 8.988-9.125 19.975-20.125 10.975-10.999 29.013-29.063 40.075-40.15l20.113-20.15 221.675 221.587c121.925 121.875 221.725 221.6 221.775 221.625 0.050 0.012 99.799-99.687 221.663-221.574l221.587-221.6 57.137 57.138v46.663l-420 419.888 420 419.825v46.75l-33.687 33.687h-46.875l-419.812-419.812-38.087 38.075c-20.962 20.938-115.462 115.399-210.025 209.913l-171.938 171.825h-46.8l-28.363-28.438z" />
<glyph unicode="&#xe90a;" glyph-name="hamburger" horiz-adv-x="1365" d="M0 891.75v-68.25h1365.333v136.5h-1365.333v-68.25zM0 448v-68.167h1365.333v136.333h-1365.333v-68.167zM0 4.25v-68.25h1365.333v136.5h-1365.333v-68.25z" />
<glyph unicode="&#xe90b;" glyph-name="chevron-wide-down" horiz-adv-x="2432" d="M0 748.8l142.336 210.624 1062.144-717.568 1084.224 718.208 139.776-211.84-1225.984-812.16z" />
<glyph unicode="&#xe90c;" glyph-name="chevron-wide-up" horiz-adv-x="2429" d="M2429.029 147.231l-142.346-210.595-1062.128 717.575-1084.243-718.211-139.804 211.866 1225.953 812.134z" />
<glyph unicode="&#xe90d;" glyph-name="play" d="M642.378 448l-471.712 235.856v-471.712l471.712 235.856zM1024 448l-1024-512v1024l1024-512z" />
<glyph unicode="&#xe90e;" glyph-name="arrow-down" d="M102.4 345.6l57.6 57.6 313.6-307.2v864h83.2v-864l313.6 307.2 57.6-57.6-416-409.6-409.6 409.6z" />
<glyph unicode="&#xe90f;" glyph-name="arrow-up" d="M921.6 550.4l-57.6-57.6-313.6 307.2v-864h-76.8v864l-313.6-307.2-57.6 57.6 409.6 409.6 409.6-409.6z" />
<glyph unicode="&#xe910;" glyph-name="chevron-left" horiz-adv-x="630" d="M488.369-28.554l-488.369 484.431 488.369 488.369 90.585-90.585-397.785-397.785 397.785-397.785-90.585-86.646z" />
<glyph unicode="&#xe911;" glyph-name="chevron-right" horiz-adv-x="630" d="M90.585 944.246l484.431-484.431-484.431-488.369-90.585 90.585 397.785 397.785-397.785 393.846 90.585 90.585z" />
<glyph unicode="&#xe912;" glyph-name="chevron-wide-left" horiz-adv-x="431" d="M342.232 960l88.926-61.979-301.811-444.632 301.811-458.105-88.926-59.284-342.232 517.389 342.232 506.611z" />
<glyph unicode="&#xe913;" glyph-name="chevron-wide-right" horiz-adv-x="431" d="M88.926-64l-88.926 61.979 301.811 447.326-301.811 455.411 88.926 59.284 342.232-517.389-342.232-506.611z" />
<glyph unicode="&#xe914;" glyph-name="pause" d="M90.126-58.281h281.349v1012.563h-281.349zM652.525 954.281v-1012.563h281.349v1012.563z" />
<glyph unicode="&#xe915;" glyph-name="play-solid" d="M904.845 530.712l-703.678 415.982c-14.051 8.598-31.060 13.689-49.254 13.689-52.717 0-95.455-42.736-95.455-95.455 0-0.277 0.002-0.557 0.005-0.834v0.044-831.812c0-0.030 0-0.064 0-0.098 0-52.935 42.912-95.845 95.845-95.845 18.027 0 34.891 4.977 49.295 13.632l-0.433-0.24 703.6 415.826c28.439 16.974 47.193 47.587 47.193 82.579 0 34.96-18.717 65.548-46.678 82.29l-0.435 0.243z" />
</font>
</defs>
</svg>
